<svg width="40" height="40" viewBox="0 0 40 40" fill="none" xmlns="http://www.w3.org/2000/svg">
<g clip-path="url(#clip0_46_3980)">
<path fill-rule="evenodd" clip-rule="evenodd" d="M30.691 17.68L30.7928 17.2364L30.96 16.3345L31.091 15.4182L31.2 14.48L31.2728 13.52V13.4327H31.1928L30.8437 13.2436L30.4873 13.04L30.131 12.8145L29.7746 12.56L29.4255 12.2764L29.091 11.9345L28.7346 11.6364L28.4073 11.2727L28.0946 10.8873L27.8037 10.48L27.5273 10.0509L27.28 9.59273L27.0546 9.12L26.8582 8.65455L26.5673 8.54545L26.2328 8.41455L25.9055 8.28364L25.571 8.16L25.2364 8L24.9019 7.86909L24.5673 7.73818L24.2328 7.61455L23.8982 7.48364L23.5637 7.35273L23.2728 7.21455L22.5455 6.96L22.211 6.82909L21.8764 6.70545L21.5637 6.54545L21.2291 6.41455L20.8946 6.28364L20.56 6.16L20.2328 6.02909L19.8982 5.89818H19.8473H19.7746H19.7164L19.3819 6.02909L19.0473 6.16L18.7128 6.29091L18.3782 6.41455L18.0437 6.54545L17.7091 6.67636L17.3819 6.8L17.0473 6.93091L16.3782 7.19273L16.0437 7.31636L15.7091 7.44727L15.3746 7.57818L15.04 7.70909L14.7055 7.83273L14.3782 7.96364L14.0437 8.09455L13.7091 8.22546L13.3746 8.34909L13.04 8.48L12.7491 8.58909L12.56 9.05455L12.3346 9.52727L12.08 9.98545L11.8037 10.4145L11.5128 10.8218L11.2 11.2145L10.9091 11.6364L10.5746 11.9709L10.2255 12.2764L9.86913 12.56L9.45459 12.8073L9.09823 13.0327L8.74186 13.2436L8.39277 13.4255L8.31277 13.4618V13.5491L8.41459 14.5455L8.51641 15.4836L8.65459 16.3636L8.82186 17.2655L8.90913 17.68L9.01823 18.1818L9.25095 19.0473L9.5055 19.9055L9.79641 20.7418L10.1091 21.5636L10.4582 22.3709L10.8291 23.1636L11.2364 23.9418L11.6655 24.6691L12.1237 25.3964L12.6037 26.1236L13.091 26.9091L13.6291 27.6364L14.1964 28.3636L14.7928 29.0909L15.4182 29.7745L16.0655 30.4364L16.7346 31.0909L17.4619 31.7382L18.1891 32.3636L18.9164 32.9818L19.6873 33.5855L19.76 33.6436L19.8691 33.5636L20.6473 32.96L21.3746 32.3418L22.1019 31.7091L22.8291 31.0691L23.5055 30.4145L24.1528 29.7527L24.771 29.0691L25.3673 28.3418L25.9346 27.6145L26.4728 26.8873L26.9891 26.16L27.4764 25.4327L27.9346 24.7055L28.3637 23.9782L28.7637 23.2L29.1419 22.4L29.4837 21.5927L29.8182 20.6764L30.1019 19.84L30.3637 18.9891L30.5891 18.1236L30.691 17.68ZM3.49822 17.68V17.6218C2.99961 15.0083 2.81648 12.3444 2.95277 9.68727C4.79277 9.29455 7.89095 8.74182 8.40732 4.45091L19.7673 0.0872727V0H19.8473L31.2 4.36364C31.7164 8.65455 34.8364 9.20727 36.6619 9.6C36.796 12.2792 36.6105 14.9648 36.1091 17.6C34.2691 27.0545 28.2691 34.4945 19.8546 40V40.08L19.8037 40.0436C11.3382 34.5964 5.33822 27.1491 3.49822 17.68Z" fill="#52C41A"/>
<path fill-rule="evenodd" clip-rule="evenodd" d="M18.8873 4.81446L18.5527 4.9381L18.2182 5.06901L17.8836 5.19992L17.5491 5.32355L17.2218 5.45446L16.8873 5.58537L16.5527 5.71628L15.8836 5.97082L15.5491 6.10173L15.2145 6.22537L14.88 6.35628L14.5455 6.48719L14.2109 6.6181L13.8836 6.74173L13.5491 6.87264L13.2145 7.00355L12.5818 7.24355L11.7091 7.58537L11.3091 8.55264L11.1127 8.95991L10.9018 9.34537L10.6691 9.70901L10.4218 10.0508L10.16 10.3781L9.88364 10.6836L9.6 10.9599L9.30909 11.2217L9.01091 11.4545L8.70545 11.6726L8.40727 11.869L8.10182 12.0436L7.80364 12.1963L6.93091 12.6108L6.97454 13.629L7.04727 14.6326L7.15636 15.6217L7.30182 16.589L7.47636 17.5417L7.68727 18.4799L7.92727 19.3963L8.20364 20.2981L8.50909 21.1781L8.84364 22.0508L9.20727 22.9017L9.6 23.7381L10.0291 24.5599L10.48 25.3672L10.96 26.1672L11.4764 26.9454L12.0145 27.709L12.5818 28.4581L13.1782 29.1999L13.7964 29.9199L14.4509 30.6326L15.12 31.3308L15.8255 32.0072L16.5527 32.6763L17.3018 33.3308L18.08 33.9708L18.88 34.5963L19.7818 35.2581L20.6036 34.6617L20.7273 34.5672L21.5345 33.9417L22.3055 33.3017L23.0618 32.6472L23.7891 31.9781L24.4873 31.2945L25.1636 30.6036L25.8109 29.8908L26.4364 29.1708L27.0255 28.429L27.6 27.6799L28.1382 26.9163L28.6473 26.1308L29.1273 25.3381L29.5855 24.5308L30.0073 23.709L30.4 22.8726L30.7709 22.0145L31.1055 21.149L31.4109 20.2617L31.68 19.3599L31.92 18.4436L32.1309 17.5126L32.3055 16.5599L32.4509 15.5926L32.56 14.6035L32.64 13.5999L32.6764 12.5817L31.8036 12.1672L31.5055 12.0145L31.2073 11.8326L30.9018 11.6436L30.6036 11.4254L30.2982 11.1854L30.0073 10.9308L29.7236 10.6472L29.4473 10.349L29.1855 10.0217L28.9382 9.67992L28.7127 9.30901L28.4945 8.93082L28.2982 8.52355L27.8982 7.54901L27.0255 7.21446L26.3927 6.97446L26.0655 6.84355L25.7309 6.71264L25.3964 6.58173L25.0618 6.4581L24.7273 6.32719L24.3927 6.19628L24.0582 6.07264L23.7236 5.94173L23.0618 5.67992L22.7273 5.55628L22.3927 5.42537L22.0582 5.29446L21.7236 5.17082L21.3891 5.03992L21.0545 4.90901L20.7273 4.7781L20.3927 4.65446L19.8473 4.43628L19.28 4.66173L19.2218 4.68355L18.8873 4.81446Z" fill="white"/>
<path fill-rule="evenodd" clip-rule="evenodd" d="M19.8473 5.90552L19.7746 5.93461L19.7164 5.95643L19.3819 6.08734L19.0473 6.21825L18.7128 6.34188L18.3782 6.47279L18.0437 6.6037L17.7091 6.73461L17.3746 6.86552L17.04 6.98915L16.3782 7.25097L16.0437 7.37461L15.7091 7.50552L15.3746 7.63643L15.04 7.76734L14.7055 7.89097L14.3782 8.02188L14.0437 8.15279L13.7091 8.27643L13.3746 8.40734L13.04 8.53824L12.7491 8.64734L12.56 9.11279L12.3346 9.58552L12.08 10.0437L11.8037 10.4728L11.5128 10.8801L11.2 11.2728L10.8728 11.6292L10.531 11.9637L10.1891 12.2692L9.83278 12.5528L9.47641 12.8073L9.12005 13.0328L8.76369 13.2437L8.41459 13.4255L8.33459 13.4619L8.34187 13.5492L8.41459 14.5092L8.51641 15.4473L8.65459 16.3637L8.82187 17.2655L9.01823 18.1528L9.24369 19.0182L9.5055 19.8692L9.79641 20.7128L10.1091 21.5346L10.4582 22.3346L10.8291 23.1346L11.2364 23.9128L11.6655 24.6764L12.1237 25.4328L12.611 26.1746L13.12 26.9019L13.6582 27.6219L14.2255 28.3201L14.8219 29.011L15.4473 29.6946L16.0946 30.3564L16.7637 31.011L17.4619 31.6582L18.1891 32.2837L18.9382 32.9019L19.7091 33.5055L19.7819 33.5637L19.7891 33.5564L19.8982 33.4764L20.6764 32.8728L21.4255 32.2546L22.1455 31.6219L22.8437 30.9819L23.52 30.3273L24.1673 29.6655L24.7855 28.9819L25.3819 28.291L25.9491 27.5855L26.4873 26.8728L27.0037 26.1455L27.491 25.4037L27.9491 24.6473L28.3782 23.8837L28.7782 23.1055L29.1564 22.3055L29.4982 21.4982L29.8182 20.6764L30.1019 19.8401L30.3637 18.9892L30.5891 18.1237L30.7928 17.2364L30.96 16.3346L31.091 15.4182L31.2001 14.4801L31.2728 13.5201V13.4328L31.1928 13.3964L30.8437 13.2073L30.4873 13.0037L30.131 12.7782L29.7746 12.5237L29.4255 12.2401L29.0764 11.9346L28.7346 11.6001L28.4073 11.2364L28.0946 10.851L27.8037 10.4437L27.5273 10.0146L27.28 9.55643L27.0546 9.0837L26.8582 8.61825L26.5673 8.50915L26.2328 8.37825L25.8982 8.24734L25.571 8.1237L25.2364 7.99279L24.9019 7.86188L24.5673 7.73097L24.2328 7.60734L23.8982 7.47643L23.5637 7.34552L23.2364 7.22188L22.5673 6.96006L22.2328 6.82915L21.8982 6.69825L21.5637 6.57461L21.2291 6.4437L20.8946 6.31279L20.5601 6.18915L20.2328 6.05824L19.8982 5.92734L19.8473 5.90552Z" fill="#52C41A"/>
<path fill-rule="evenodd" clip-rule="evenodd" d="M10.5673 18.6472L10.8073 19.4545L11.0836 20.24L11.3818 21.0181L11.7091 21.7745L12.0582 22.5236L12.4364 23.2654L12.8436 23.9854L13.28 24.6981L13.7382 25.4036L14.2255 26.0945L14.7418 26.7781L15.28 27.4472L15.8473 28.1091L16.4436 28.7563L17.0618 29.3891L17.7018 30.0145L18.3782 30.6327L19.0691 31.2363L19.7818 31.8254L19.8182 31.8036L20.5382 31.2072L21.2364 30.6036L21.9055 29.9854L22.5527 29.36L23.1709 28.72L23.76 28.0727L24.3273 27.4181L24.8727 26.7418L25.3818 26.0654L25.8691 25.3745L26.3273 24.6691L26.7636 23.9563L27.1709 23.2363L27.5491 22.4945L27.9055 21.7454L28.2327 20.9818L28.5309 20.2109L28.8 19.4181L29.0473 18.6181L29.2582 17.7963L29.4473 16.96L29.6073 16.1091L29.7382 15.2363L29.8327 14.3491L29.8473 14.2109L29.7745 14.1745L29.3673 13.9127L28.9527 13.6145L28.5455 13.2872L28.1382 12.9381L27.7527 12.5454L27.3673 12.1309L27.0036 11.68L26.6691 11.2072L26.3491 10.7127L26.0655 10.1891L25.8182 9.68724L25.4109 9.52724L25.0764 9.39633L24.7418 9.26542L24.4073 9.14178L24.0727 9.01088L23.7382 8.87997L23.4036 8.75633L23.0691 8.62542L22.7418 8.49451L22.0727 8.23997L21.7382 8.10906L21.4036 7.97815L21.0691 7.84724L20.7418 7.7236L20.4 7.59269L20.0655 7.46178L19.8473 7.37451L19.5418 7.49088L19.2073 7.62178L18.8727 7.75269L18.5382 7.8836L18.2036 8.00724L17.8691 8.13815L17.5345 8.26906L16.8727 8.5236L16.5382 8.65451L16.2036 8.78542L15.8691 8.91633L15.5345 9.03997L15.2 9.17087L14.8655 9.30178L14.5309 9.42542L14.2036 9.55633L13.7891 9.71633L13.5491 10.2181L13.2582 10.7418L12.9455 11.2363L12.6036 11.7163L12.24 12.16L11.8618 12.5818L11.4691 12.9672L11.0691 13.3236L10.6545 13.6436L10.2473 13.9418L9.83273 14.2036L9.76727 14.2472L9.77455 14.3781L9.87636 15.2727L10.0073 16.1381L10.16 16.9891L10.3491 17.8254L10.5673 18.6472Z" fill="url(#paint0_linear_46_3980)"/>
<path d="M29.7819 13.4544L23.9928 28.8581L19.8255 19.3817L15.6946 28.9017L9.8255 13.4544H12.7128L15.76 21.629L19.8255 13.1562L23.7746 21.629L26.9746 13.4544H29.7819Z" fill="white"/>
</g>
<defs>
<linearGradient id="paint0_linear_46_3980" x1="19.8073" y1="7.37451" x2="19.8073" y2="31.8254" gradientUnits="userSpaceOnUse">
<stop stop-color="white" stop-opacity="0.41"/>
<stop offset="0.296875" stop-color="white" stop-opacity="0"/>
</linearGradient>
<clipPath id="clip0_46_3980">
<rect width="40" height="40" fill="white"/>
</clipPath>
</defs>
</svg>
